# xmcd
#
# Track frame offsets:
#	150
#	13215
#	28332
#	42080
#	52472
#	65385
#	80685
#	91595
#	102467
#	114675
#	130042
#	144300
#	158355
#	171882
#	184677
#	195125
#	207340
#	220640
#
# Disc length: 3112 seconds
#
# Revision: 1
# Processed by: cddbd v1.4PL0 Copyright (c) Steve Scherf et al.
# Submitted via: audiograbber 1.82.02
#
DISCID=f40c2612
DTITLE=The Truck Trampers - Country Affairs
DYEAR=1991
DGENRE=Country
TTITLE0=Coutry affairs
TTITLE1=Walkin' the walkman
TTITLE2=Dusty road
TTITLE3=Texas trail
TTITLE4=Cross country
TTITLE5=Oak ridge sunset
TTITLE6=Saturday night saloon
TTITLE7=Fast food
TTITLE8=Going west
TTITLE9=Roadhouse bar-be-cue
TTITLE10=Classic frontier
TTITLE11=Truck tramper blues
TTITLE12=Sweet rodeo queen
TTITLE13=Rockin' Tennesse
TTITLE14=Hot Texas chilli
TTITLE15=Coming home to the ranch
TTITLE16=Kentucky flair
TTITLE17=Lucky trucky
EXTD=
EXTT0=
EXTT1=
EXTT2=
EXTT3=
EXTT4=
EXTT5=
EXTT6=
EXTT7=
EXTT8=
EXTT9=
EXTT10=
EXTT11=
EXTT12=
EXTT13=
EXTT14=
EXTT15=
EXTT16=
EXTT17=
PLAYORDER=
